<?xml version="1.0" encoding="UTF-8"?>
<svg width="64" height="64" viewBox="0 0 64 64" xmlns="http://www.w3.org/2000/svg">
  <!-- Simple solid pixel grid pattern - no opacity or overlays -->
  
  <!-- Row 1 -->
  <rect x="0" y="0" width="8" height="8" fill="#077000"/>
  <rect x="8" y="0" width="8" height="8" fill="#6ae300"/>
  <rect x="16" y="0" width="8" height="8" fill="#3fb002"/>
  <rect x="24" y="0" width="8" height="8" fill="#7cf000"/>
  <rect x="32" y="0" width="8" height="8" fill="#2f9101"/>
  <rect x="40" y="0" width="8" height="8" fill="#6ae300"/>
  <rect x="48" y="0" width="8" height="8" fill="#0b7504"/>
  <rect x="56" y="0" width="8" height="8" fill="#3fb002"/>
  
  <!-- Row 2 -->
  <rect x="0" y="8" width="8" height="8" fill="#6ae300"/>
  <rect x="8" y="8" width="8" height="8" fill="#0b7504"/>
  <rect x="16" y="8" width="8" height="8" fill="#7cf000"/>
  <rect x="24" y="8" width="8" height="8" fill="#2f9101"/>
  <rect x="32" y="8" width="8" height="8" fill="#077000"/>
  <rect x="40" y="8" width="8" height="8" fill="#3fb002"/>
  <rect x="48" y="8" width="8" height="8" fill="#6ae300"/>
  <rect x="56" y="8" width="8" height="8" fill="#7cf000"/>
  
  <!-- Row 3 -->
  <rect x="0" y="16" width="8" height="8" fill="#3fb002"/>
  <rect x="8" y="16" width="8" height="8" fill="#7cf000"/>
  <rect x="16" y="16" width="8" height="8" fill="#0b7504"/>
  <rect x="24" y="16" width="8" height="8" fill="#6ae300"/>
  <rect x="32" y="16" width="8" height="8" fill="#3fb002"/>
  <rect x="40" y="16" width="8" height="8" fill="#077000"/>
  <rect x="48" y="16" width="8" height="8" fill="#2f9101"/>
  <rect x="56" y="16" width="8" height="8" fill="#6ae300"/>
  
  <!-- Row 4 -->
  <rect x="0" y="24" width="8" height="8" fill="#7cf000"/>
  <rect x="8" y="24" width="8" height="8" fill="#2f9101"/>
  <rect x="16" y="24" width="8" height="8" fill="#6ae300"/>
  <rect x="24" y="24" width="8" height="8" fill="#077000"/>
  <rect x="32" y="24" width="8" height="8" fill="#7cf000"/>
  <rect x="40" y="24" width="8" height="8" fill="#0b7504"/>
  <rect x="48" y="24" width="8" height="8" fill="#3fb002"/>
  <rect x="56" y="24" width="8" height="8" fill="#2f9101"/>
  
  <!-- Row 5 -->
  <rect x="0" y="32" width="8" height="8" fill="#2f9101"/>
  <rect x="8" y="32" width="8" height="8" fill="#3fb002"/>
  <rect x="16" y="32" width="8" height="8" fill="#077000"/>
  <rect x="24" y="32" width="8" height="8" fill="#6ae300"/>
  <rect x="32" y="32" width="8" height="8" fill="#0b7504"/>
  <rect x="40" y="32" width="8" height="8" fill="#7cf000"/>
  <rect x="48" y="32" width="8" height="8" fill="#6ae300"/>
  <rect x="56" y="32" width="8" height="8" fill="#077000"/>
  
  <!-- Row 6 -->
  <rect x="0" y="40" width="8" height="8" fill="#0b7504"/>
  <rect x="8" y="40" width="8" height="8" fill="#6ae300"/>
  <rect x="16" y="40" width="8" height="8" fill="#2f9101"/>
  <rect x="24" y="40" width="8" height="8" fill="#3fb002"/>
  <rect x="32" y="40" width="8" height="8" fill="#6ae300"/>
  <rect x="40" y="40" width="8" height="8" fill="#2f9101"/>
  <rect x="48" y="40" width="8" height="8" fill="#077000"/>
  <rect x="56" y="40" width="8" height="8" fill="#7cf000"/>
  
  <!-- Row 7 -->
  <rect x="0" y="48" width="8" height="8" fill="#6ae300"/>
  <rect x="8" y="48" width="8" height="8" fill="#077000"/>
  <rect x="16" y="48" width="8" height="8" fill="#3fb002"/>
  <rect x="24" y="48" width="8" height="8" fill="#7cf000"/>
  <rect x="32" y="48" width="8" height="8" fill="#2f9101"/>
  <rect x="40" y="48" width="8" height="8" fill="#6ae300"/>
  <rect x="48" y="48" width="8" height="8" fill="#0b7504"/>
  <rect x="56" y="48" width="8" height="8" fill="#3fb002"/>
  
  <!-- Row 8 -->
  <rect x="0" y="56" width="8" height="8" fill="#3fb002"/>
  <rect x="8" y="56" width="8" height="8" fill="#7cf000"/>
  <rect x="16" y="56" width="8" height="8" fill="#6ae300"/>
  <rect x="24" y="56" width="8" height="8" fill="#0b7504"/>
  <rect x="32" y="56" width="8" height="8" fill="#077000"/>
  <rect x="40" y="56" width="8" height="8" fill="#3fb002"/>
  <rect x="48" y="56" width="8" height="8" fill="#7cf000"/>
  <rect x="56" y="56" width="8" height="8" fill="#2f9101"/>
</svg>